<?xml version="1.0" encoding="utf-8"?>
<?xml-stylesheet type="text/xsl" href="rss1.xsl"?>
<rss version="2.0" xmlns:atom="http://www.w3.org/2005/Atom" xmlns:content="http://purl.org/rss/1.0/modules/content/" xmlns:dc="http://purl.org/dc/elements/1.1/" xmlns:media="http://search.yahoo.com/mrss/">
<channel>
 <title>Getty</title>
 <link>http://www.gettyimg.com/</link>
 <atom:link href="http://www.gettyimg.com/" rel="self" type="application/rss+xml" />

 
                <item>
                <title><![CDATA[【Requests】[REQ AUD] - Hilary Duff - So Yesterday (GoodandEvil Remix)]]></title>
                <link><![CDATA[https://sharemania.us/threads/hilary-duff-so-yesterday-goodandevil-remix.237244/]]></link>
                <description><![CDATA[<article>
<blockquote class="messageText SelectQuoteContainer ugc baseHtml">
Hello, does anyone have this in FLAC or any quality at this point that isn't a youtube rip?
<div class="messageTextEndMarker">&nbsp;</div>
</blockquote>
</article>]]></description>
                <author><![CDATA[pizzagoldfish]]></author>
                </item>

                
                <item>
                <title><![CDATA[【PRORES SD】Taylor_Swift_-_Teardrops_On_My_Guitar__POP_Version_prores]]></title>
                <link><![CDATA[https://sharemania.us/threads/taylor_swift_-_teardrops_on_my_guitar__pop_version_prores.237246/]]></link>
                <description><![CDATA[<article>
<blockquote class="messageText SelectQuoteContainer ugc baseHtml">
<img src="https://www.imgbly.com/ib/a2FLUosSJf.jpg" class="bbCodeImage LbImage" alt="[​IMG]" data-url="https://www.imgbly.com/ib/a2FLUosSJf.jpg" style=""> <br>
<div class="ToggleTriggerAnchor bbCodeSpoilerContainer">
<button type="button" class="button bbCodeSpoilerButton ToggleTrigger Tooltip JsOnly" data-target="> .SpoilerTarget"><span>Spoiler: <span class="SpoilerTitle">mediainfo</span></span></button>
<div class="SpoilerTarget bbCodeSpoilerText">General<br>
Complete name : F:\Copy_of_Taylor_Swift_-_Teardrops_On_My_Guitar__POP_Version_U.mov<br>
Format : MPEG-4<br>
Format profile : QuickTime<br>
Codec ID : qt 0000.02 (qt )<br>
File size : 1.40 GiB<br>
Duration : 3 min 55 s<br>
Overall bit rate mode : Variable<br>
Overall bit rate : 50.8 Mb/s<br>
Writing application : Lavf57.19.100<br>
<br>
Video<br>
ID : 1<br>
Format : ProRes<br>
Format version : Version 0<br>
Format profile : 422 HQ<br>
Codec ID : apch<br>
Duration : 3 min 55 s<br>
Bit rate mode : Variable<br>
Bit rate : 48.7 Mb/s<br>
Width : 720 pixels<br>
Height : 480 pixels<br>
Display aspect ratio : 4:3<br>
Frame rate mode : Constant<br>
Frame rate : 29.970 (30000/1001) FPS<br>
Standard : NTSC<br>
Color space : YUV<br>
Chroma subsampling : 4:2:2<br>
Scan type : Progressive<br>
Bits/(Pixel*Frame) : 4.699<br>
Stream size : 1.34 GiB (96%)<br>
Writing library : fmpg<br>
Language : English<br>
Matrix coefficients : BT.601<br>
<br>
Audio<br>
ID : 2<br>
Format : PCM<br>
Format settings : Little / Signed<br>
Codec ID : in24<br>
Duration : 3 min 40 s<br>
Bit rate mode : Constant<br>
Bit rate : 2 304 kb/s<br>
Channel(s) : 2 channels<br>
Channel layout : L R<br>
Sampling rate : 48.0 kHz<br>
Bit depth : 24 bits<br>
Stream size : 60.7 MiB (4%)<br>
Language : English<br>
Default : Yes<br>
Alternate group : 1</div>
</div>
<div class="bbCodeBlock bbCodeVfcHH HiddenContent">
<div class="attribution type">Hidden Content:</div>
<blockquote>You must reply before you can see the hidden data contained here.</blockquote>
</div>
<div class="messageTextEndMarker">&nbsp;</div>
</blockquote>
</article>]]></description>
                <author><![CDATA[unknown8YThu]]></author>
                </item>

                
                <item>
                <title><![CDATA[【Singles (lossy)】Dolby Atmos - Loredana Bertè - Pazza (Dolby Atmos Tidal EAC3 M4A) 2024]]></title>
                <link><![CDATA[https://sharemania.us/threads/loredana-bert%C3%A8-pazza-dolby-atmos-tidal-eac3-m4a-2024.237245/]]></link>
                <description><![CDATA[<article>
<blockquote class="messageText SelectQuoteContainer ugc baseHtml">
<img src="https://is1-ssl.mzstatic.com/image/thumb/Music116/v4/d2/e1/e0/d2e1e0bd-6768-f890-c6ac-3bbe7d36ccb9/5054197961564.jpg/3000x3000bb.webp" class="bbCodeImage LbImage" alt="[​IMG]" data-url="https://is1-ssl.mzstatic.com/image/thumb/Music116/v4/d2/e1/e0/d2e1e0bd-6768-f890-c6ac-3bbe7d36ccb9/5054197961564.jpg/3000x3000bb.webp" style=""> <br>
<div class="bbCodeBlock bbCodeVfcHH HiddenContent">
<div class="attribution type">Hidden Content:</div>
<blockquote>You must reply before you can see the hidden data contained here.</blockquote>
</div>
<div class="messageTextEndMarker">&nbsp;</div>
</blockquote>
</article>]]></description>
                <author><![CDATA[brunodesalles_]]></author>
                </item>

                </channel></rss>